<svg id="learn_logo_white" xmlns="http://www.w3.org/2000/svg" width="207.759" height="89.728" viewBox="0 0 207.759 89.728">
  <defs>
    <style type="text/css">@import url(https://fonts.googleapis.com/css?family=Montserrat:400,500,600,700,800);</style>
    <style>

      @font-face {
      font-family: Montserrat-SemiBold, Montserrat;
      }
      .cls-1 {
        fill: #f4f9fd;
        font-size: 47px;
        font-family: Montserrat-SemiBold, Montserrat;
        font-weight: 600;
      }

      .cls-2 {
        fill: #fff;
        font-size: 43px;
        font-family: Montserrat-Medium, Montserrat;
        font-weight: 500;
      }

      .cls-3 {
        fill: #fc0;
      }


    </style>
  </defs>
  <g id="Group_1" data-name="Group 1" transform="translate(20.759 32.728)">
    <text id="Semato" class="cls-1" transform="translate(0 45)"><tspan x="0" y="0">Semato</tspan></text>
  </g>
  <text id="Learn" class="cls-2" transform="translate(81.913 42.188)"><tspan x="0" y="0">Learn</tspan></text>
  <g id="_0274159d77304d423b87621f013e5961" data-name="0274159d77304d423b87621f013e5961">
    <path id="Path_1" data-name="Path 1" class="cls-3" d="M76.813,167.117l-30.246-10.4c-1.887-.682-1.49-.689-3.363-.007L12.785,167.02c-1.873.675-1.859,1.775.028,2.458l7.227,2.451c-3.2,3.105-3.412,6.329-3.453,10.068a3.306,3.306,0,0,0-.3,6.037c-.508,3.8-1.977,8.146-6.287,13.292a14.337,14.337,0,0,0,4.888,2.75c6.03-2.59,5.292-9.469,4.825-16.313a3.3,3.3,0,0,0-.188-5.473c.1-3.662.905-6.942,3.648-9.065.021-.056.084-.1.2-.153l20.79-8.4a1.5,1.5,0,0,1,1.957.836l.028.07a1.5,1.5,0,0,1-.836,1.956l-17.574,7.018,15.722,5.333c1.887.682,1.49.689,3.363.007l30.016-10.312C78.707,168.9,78.7,167.8,76.813,167.117ZM43.421,183.869l-19.036-6.447v4.853a4.9,4.9,0,0,1,1.546,3.669,5.164,5.164,0,0,1-1.225,3.384,2.687,2.687,0,0,0,1.316,1.741c11.078,6.12,26.388,6.058,38.7-.62a3.817,3.817,0,0,0,1.622-2.611V177.15l-19.551,6.733C44.925,184.559,45.3,184.552,43.421,183.869Z" transform="translate(-10 -156.2)"/>
  </g>
</svg>
