<svg id="courses-icon" xmlns="http://www.w3.org/2000/svg" width="20.998" height="31.897" viewBox="0 0 20.998 31.897">
  <path id="Path_25" data-name="Path 25" d="M21,6.239c0-.007,0-.014,0-.02a.623.623,0,0,0-.01-.08h0a.653.653,0,0,0-.021-.078l-.007-.019a.673.673,0,0,0-.031-.071l0,0a.612.612,0,0,0-.043-.069l-.012-.017a.629.629,0,0,0-.054-.063L15.179.182a.628.628,0,0,0-.063-.054L15.1.116a.591.591,0,0,0-.068-.043l0,0A.652.652,0,0,0,14.957.04l-.02-.007A.638.638,0,0,0,14.86.012h0A.66.66,0,0,0,14.78,0H.623A.623.623,0,0,0,0,.623V27.288a.623.623,0,0,0,.623.623H10v3.363a.623.623,0,0,0,.954.528l2.373-1.489L15.7,31.8a.623.623,0,0,0,.954-.528V27.911h3.719A.623.623,0,0,0,21,27.288V6.26c0-.007,0-.014,0-.021ZM15.361,2.127l3.51,3.51h-3.51ZM9.7,19.242a1.914,1.914,0,0,1-.117-.393,1.849,1.849,0,0,1,.321-.232,2.261,2.261,0,0,0,.656-.548,2.246,2.246,0,0,0,.325-.8A2.015,2.015,0,0,1,11,16.91a.779.779,0,0,1,.154-.011c.069,0,.147,0,.229.008s.192.009.293.009a1.766,1.766,0,0,0,.57-.08,2.35,2.35,0,0,0,.719-.443,1.6,1.6,0,0,1,.365-.25,1.489,1.489,0,0,1,.37.25,2.351,2.351,0,0,0,.719.443,1.765,1.765,0,0,0,.57.08c.1,0,.2,0,.293-.009s.16-.008.229-.008a.761.761,0,0,1,.154.011,2,2,0,0,1,.115.361,2.247,2.247,0,0,0,.326.8,2.259,2.259,0,0,0,.656.548,1.868,1.868,0,0,1,.321.232,1.926,1.926,0,0,1-.117.393,2.467,2.467,0,0,0-.2.856,2.475,2.475,0,0,0,.2.856,1.914,1.914,0,0,1,.117.393,1.868,1.868,0,0,1-.321.232,1.779,1.779,0,0,0-.982,1.346,2.022,2.022,0,0,1-.115.361.781.781,0,0,1-.154.011c-.07,0-.147,0-.229-.008s-.192-.009-.293-.009a1.766,1.766,0,0,0-.57.08,2.356,2.356,0,0,0-.719.443,1.552,1.552,0,0,1-.367.25,1.552,1.552,0,0,1-.367-.25,2.359,2.359,0,0,0-.719-.443,1.767,1.767,0,0,0-.57-.08c-.1,0-.2,0-.293.009s-.16.008-.229.008A.781.781,0,0,1,11,23.286a2.015,2.015,0,0,1-.116-.361,2.242,2.242,0,0,0-.325-.8,2.255,2.255,0,0,0-.656-.548,1.855,1.855,0,0,1-.321-.232,1.931,1.931,0,0,1,.117-.393,2.467,2.467,0,0,0,.2-.856,2.472,2.472,0,0,0-.2-.856Zm5.715,10.906-1.75-1.1a.624.624,0,0,0-.662,0l-1.75,1.1V24.541l.194-.008c.083,0,.16-.008.231-.008a.611.611,0,0,1,.176.016,1.677,1.677,0,0,1,.331.232,1.834,1.834,0,0,0,1.149.525,1.834,1.834,0,0,0,1.149-.525,1.67,1.67,0,0,1,.331-.232.615.615,0,0,1,.176-.016c.07,0,.148,0,.231.008l.194.008v5.606Zm1.246-3.482V24.039a2.267,2.267,0,0,0,.328-.8,1.6,1.6,0,0,1,.124-.373,1.617,1.617,0,0,1,.317-.231,1.757,1.757,0,0,0,.84-.891,1.8,1.8,0,0,0-.131-1.217,1.683,1.683,0,0,1-.121-.427,1.682,1.682,0,0,1,.121-.427,1.8,1.8,0,0,0,.131-1.217,1.758,1.758,0,0,0-.84-.891,1.638,1.638,0,0,1-.317-.231,1.61,1.61,0,0,1-.124-.373A1.739,1.739,0,0,0,16.4,15.9a1.48,1.48,0,0,0-.894-.248c-.1,0-.2,0-.292.01s-.16.008-.23.008a.612.612,0,0,1-.176-.016,1.663,1.663,0,0,1-.331-.232A1.837,1.837,0,0,0,13.33,14.9a1.836,1.836,0,0,0-1.149.525,1.673,1.673,0,0,1-.331.232.613.613,0,0,1-.176.016c-.07,0-.148,0-.231-.008s-.191-.009-.292-.009a1.479,1.479,0,0,0-.893.248,1.738,1.738,0,0,0-.583,1.058,1.616,1.616,0,0,1-.124.373,1.638,1.638,0,0,1-.317.231,1.759,1.759,0,0,0-.84.891,1.8,1.8,0,0,0,.131,1.217,1.682,1.682,0,0,1,.121.427,1.683,1.683,0,0,1-.121.427,1.8,1.8,0,0,0-.131,1.217,1.76,1.76,0,0,0,.84.891,1.63,1.63,0,0,1,.317.231,1.616,1.616,0,0,1,.124.373,2.266,2.266,0,0,0,.328.8v2.626H1.246V1.246H14.115V6.26a.623.623,0,0,0,.623.623h5.014V26.665Zm0,0" transform="translate(0 0)" fill="#f9fafc" fill-rule="evenodd"/>
  <path id="Path_26" data-name="Path 26" d="M49.486,91.738h8.026a.623.623,0,1,0,0-1.246H49.486a.623.623,0,0,0,0,1.246Zm0,0" transform="translate(-45.819 -84.854)" fill="#f9fafc" fill-rule="evenodd"/>
  <path id="Path_27" data-name="Path 27" d="M63.221,140.969H49.487a.623.623,0,0,0,0,1.246H63.221a.623.623,0,0,0,0-1.246Zm0,0" transform="translate(-45.82 -132.187)" fill="#f9fafc" fill-rule="evenodd"/>
  <path id="Path_28" data-name="Path 28" d="M60.729,191.445H49.487a.623.623,0,1,0,0,1.246H60.729a.623.623,0,1,0,0-1.246Zm0,0" transform="translate(-45.82 -179.518)" fill="#f9fafc" fill-rule="evenodd"/>
  <path id="Path_29" data-name="Path 29" d="M269.932,191.445a.623.623,0,1,0,.623.623A.624.624,0,0,0,269.932,191.445Zm0,0" transform="translate(-252.531 -179.518)" fill="#f9fafc" fill-rule="evenodd"/>
</svg>
