<svg xmlns="http://www.w3.org/2000/svg" width="36.419" height="32.177" viewBox="0 0 36.419 32.177">
  <g id="add-course-icon" transform="translate(-472 -390)">
    <g id="training" transform="translate(472 390)">
      <path id="Path_59" data-name="Path 59" d="M20.055,16.055a.45.45,0,0,1-.191-.043l-7.607-3.58a.448.448,0,0,1,0-.81l7.607-3.58a.448.448,0,0,1,.381,0l7.607,3.58a.448.448,0,0,1,0,.81l-7.607,3.58a.45.45,0,0,1-.191.043ZM13.5,12.027l6.556,3.085,6.556-3.085L20.055,8.942Z" transform="translate(-6.63 -4.42)" fill="#f9fafc"/>
      <path id="Path_60" data-name="Path 60" d="M22.817,25.355a.448.448,0,0,1-.2-.047l-5.37-2.685a.448.448,0,0,1-.247-.4V18.8a.447.447,0,0,1,.638-.4l5.18,2.437L28,18.4a.448.448,0,0,1,.638.4v3.422a.448.448,0,0,1-.247.4l-5.37,2.685A.448.448,0,0,1,22.817,25.355Zm-4.922-3.409,4.922,2.461,4.922-2.461v-2.44l-4.732,2.227a.448.448,0,0,1-.381,0l-4.732-2.227Z" transform="translate(-9.393 -10.14)" fill="#f9fafc"/>
      <path id="Path_61" data-name="Path 61" d="M37.055,16.895H29.447a.447.447,0,0,1,0-.895h7.607a.447.447,0,1,1,0,.895Z" transform="translate(-16.023 -8.84)" fill="#f9fafc"/>
      <path id="Path_62" data-name="Path 62" d="M46.447,20.922A.448.448,0,0,1,46,20.475V16.447a.447.447,0,1,1,.895,0v4.027A.448.448,0,0,1,46.447,20.922Z" transform="translate(-25.416 -8.84)" fill="#f9fafc"/>
      <path id="Path_63" data-name="Path 63" d="M29.447,16.685A.448.448,0,0,1,29,16.237v-1.79a.447.447,0,0,1,.895,0v1.79A.448.448,0,0,1,29.447,16.685Z" transform="translate(-16.023 -7.735)" fill="#f9fafc"/>
      <path id="Path_64" data-name="Path 64" d="M44.447,27.237a.447.447,0,0,1-.372-.7L44.97,25.2a.448.448,0,0,1,.745.5l-.895,1.342A.447.447,0,0,1,44.447,27.237Z" transform="translate(-24.311 -13.812)" fill="#f9fafc"/>
      <path id="Path_65" data-name="Path 65" d="M47.343,27.237a.447.447,0,0,1-.373-.2L46.075,25.7a.448.448,0,0,1,.745-.5l.895,1.342a.447.447,0,0,1-.372.7Z" transform="translate(-25.416 -13.812)" fill="#f9fafc"/>
      <path id="Path_66" data-name="Path 66" d="M29.447,26.237A.448.448,0,0,1,29,25.79V24.447a.447.447,0,0,1,.895,0V25.79A.448.448,0,0,1,29.447,26.237Z" transform="translate(-16.023 -13.26)" fill="#f9fafc"/>
      <path id="Path_67" data-name="Path 67" d="M26.4,17H.447A.448.448,0,0,1,0,16.557V1.79A1.793,1.793,0,0,1,1.79,0H25.059a1.793,1.793,0,0,1,1.79,1.79V16.557A.448.448,0,0,1,26.4,17ZM.895,16.109H25.954V1.79a.9.9,0,0,0-.9-.9H1.79a.9.9,0,0,0-.9.9Z" transform="translate(0 0)" fill="#f9fafc"/>
      <path id="Path_68" data-name="Path 68" d="M25.059,40.475H1.79A1.793,1.793,0,0,1,0,38.684V36.447A.448.448,0,0,1,.447,36H26.4a.448.448,0,0,1,.447.447v2.237A1.793,1.793,0,0,1,25.059,40.475ZM.895,36.895v1.789a.9.9,0,0,0,.9.9H25.059a.9.9,0,0,0,.9-.9V36.895Z" transform="translate(0 -19.891)" fill="#f9fafc"/>
      <path id="Path_69" data-name="Path 69" d="M29.132,40.895H26.447a.447.447,0,1,1,0-.895h2.685a.447.447,0,1,1,0,.895Z" transform="translate(-14.365 -22.101)" fill="#f9fafc"/>
      <path id="Path_70" data-name="Path 70" d="M26.822,19.215H4.447A.448.448,0,0,1,4,18.767V4.447A.448.448,0,0,1,4.447,4H26.822a.448.448,0,0,1,.447.447v14.32A.448.448,0,0,1,26.822,19.215ZM4.895,18.32H26.374V4.895H4.895Z" transform="translate(-2.21 -2.21)" fill="#f9fafc"/>
      <path id="Path_71" data-name="Path 71" d="M26.977,54.685H15.342a1.342,1.342,0,0,1,0-2.685H26.977a1.342,1.342,0,1,1,0,2.685Zm-11.635-1.79a.447.447,0,1,0,0,.895H26.977a.447.447,0,1,0,0-.895Z" transform="translate(-7.735 -28.731)" fill="#f9fafc"/>
      <path id="Path_72" data-name="Path 72" d="M28.292,48.475H18.447a.447.447,0,1,1,0-.895c1.485,0,2.237-1.054,2.237-3.132A.448.448,0,0,1,21.132,44h4.475a.448.448,0,0,1,.447.447c0,2.079.753,3.132,2.237,3.132a.447.447,0,1,1,0,.895Zm-7.665-.895h5.486a4.282,4.282,0,0,1-.941-2.685h-3.6A4.285,4.285,0,0,1,20.627,47.58Z" transform="translate(-9.945 -24.311)" fill="#f9fafc"/>
    </g>
    <g id="Group_13" data-name="Group 13" transform="translate(495.036 408.794)" opacity="0.99">
      <rect id="Rectangle_8" data-name="Rectangle 8" width="13.383" height="3.402" transform="translate(0 4.99)" fill="#f9fafc"/>
      <rect id="Rectangle_9" data-name="Rectangle 9" width="13.383" height="3.402" transform="translate(8.393) rotate(90)" fill="#f9fafc"/>
    </g>
  </g>
</svg>
