<svg id="paper" xmlns="http://www.w3.org/2000/svg" width="26.346" height="26.089" viewBox="0 0 26.346 26.089">
  <path id="Path_30" data-name="Path 30" d="M26.129,5.69l-3.11-2.966a.631.631,0,0,0-.469-.231H10.091a.661.661,0,0,0-.66.66V5.179L5.04,5.932a.65.65,0,0,0-.528.75l.223,1.3c-1.427.48-2.893.975-4.307,1.484a.653.653,0,0,0-.39.83l2.814,7.822a.386.386,0,0,0,.726-.261L.805,10.15c1.333-.477,2.713-.944,4.062-1.4l1.326,7.731,1.526,8.9a.654.654,0,0,0,.75.529l4.133-.709,3.229-.554L10.974,26.4l-3.83,1.377L4.169,19.5a.386.386,0,0,0-.726.261L6.46,28.154a.652.652,0,0,0,.611.428.638.638,0,0,0,.219-.039l3.945-1.418,8.958-3.22,1.711-.293h3.781a.661.661,0,0,0,.66-.661V6.125a.555.555,0,0,0-.217-.435Zm-1.022.091H23.127c-.092,0-.309,0-.364-.052a.217.217,0,0,1-.027-.133l0-2.08Zm.467,17.058H10.2V15.318a.386.386,0,0,0-.772,0V22.95a.661.661,0,0,0,.66.661h7.246l-4.865.834-4.013.689L6.954,16.352,5.293,6.672l4.137-.709v7.565a.386.386,0,0,0,.772,0V3.265H21.959L21.964,5.6a.919.919,0,0,0,.256.68,1.18,1.18,0,0,0,.857.277h2.5Z" transform="translate(0 -2.493)" fill="#f4f9fd"/>
  <path id="Path_31" data-name="Path 31" d="M234.43,111.835a.386.386,0,0,0,.386.386H245.85a.386.386,0,1,0,0-.772H234.816A.386.386,0,0,0,234.43,111.835Z" transform="translate(-222.367 -105.842)" fill="#f4f9fd"/>
  <path id="Path_32" data-name="Path 32" d="M245.85,164.731H234.816a.386.386,0,0,0,0,.772H245.85a.386.386,0,1,0,0-.772Z" transform="translate(-222.367 -156.383)" fill="#f4f9fd"/>
  <path id="Path_33" data-name="Path 33" d="M245.85,218.013H234.816a.386.386,0,1,0,0,.772H245.85a.386.386,0,1,0,0-.772Z" transform="translate(-222.367 -206.923)" fill="#f4f9fd"/>
  <path id="Path_34" data-name="Path 34" d="M245.85,271.3H234.816a.386.386,0,1,0,0,.772H245.85a.386.386,0,1,0,0-.772Z" transform="translate(-222.367 -257.463)" fill="#f4f9fd"/>
  <path id="Path_35" data-name="Path 35" d="M245.85,324.578H234.816a.386.386,0,0,0,0,.772H245.85a.386.386,0,1,0,0-.772Z" transform="translate(-222.367 -308.005)" fill="#f4f9fd"/>
</svg>
